<svg width="100" height="100" viewBox="0 0 100 100" fill="none"
    xmlns="http://www.w3.org/2000/svg">
    <rect width="100" height="100" rx="10" fill="#047AFF" />
    <path fill-rule="evenodd" clip-rule="evenodd" d="M50 19C53.866 19 57 22.134 57 26V75C57 78.866 53.866 82 50 82C46.134 82 43 78.866 43 75V26C43 22.134 46.134 19 50 19ZM26 53C29.866 53 33 56.134 33 60V75C33 78.866 29.866 82 26 82C22.134 82 19 78.866 19 75V60C19 56.134 22.134 53 26 53ZM81 26C81 22.134 77.866 19 74 19C70.134 19 67 22.134 67 26V41C67 44.866 70.134 48 74 48C77.866 48 81 44.866 81 41V26Z" fill="white" />
</svg>
